<svg width="16" height="16" viewBox="0 0 16 16" fill="none" xmlns="http://www.w3.org/2000/svg">
<rect opacity="0.01" x="16" y="16" width="16" height="16" transform="rotate(180 16 16)" fill="black"/>
<path fill-rule="evenodd" clip-rule="evenodd" d="M1.33337 8.00001C1.33337 4.31811 4.31814 1.33334 8.00004 1.33334C9.76815 1.33334 11.4638 2.03572 12.7141 3.28596C13.9643 4.53621 14.6667 6.2319 14.6667 8.00001C14.6667 11.6819 11.6819 14.6667 8.00004 14.6667C4.31814 14.6667 1.33337 11.6819 1.33337 8.00001ZM8.00004 8.66668H10.6667C11.0349 8.66668 11.3334 8.3682 11.3334 8.00001C11.3334 7.63182 11.0349 7.33334 10.6667 7.33334H8.66671V5.33334C8.66671 4.96515 8.36823 4.66668 8.00004 4.66668C7.63185 4.66668 7.33337 4.96515 7.33337 5.33334V8.00001C7.33337 8.3682 7.63185 8.66668 8.00004 8.66668Z" fill="#8BACD9"/>
</svg>
